<svg id="Layer_1" data-name="Layer 1" xmlns="http://www.w3.org/2000/svg" viewBox="0 0 186 186"><defs><style>.cls-1{fill:none;stroke:#ff712e;stroke-miterlimit:8;stroke-width:10px;stroke-dasharray:348.72 120.24;}.cls-2{fill:#ff6301;fill-rule:evenodd;}</style></defs><title>bbq</title>
  <circle class="cls-1" cx="90" cy="98" r="75">
    <animateTransform
      attributeType="XML"
      attributeName="transform"
      type="rotate"
      from="0 90 98"
      to="360 90 98"
      dur="1s"
      repeatCount="indefinite" /></circle>
  <path class="cls-2" d="M101.66,84.57c-2,7.45,6.1,15.77,15.38,1.44l-2.33-1.69a9.65,9.65,0,0,1,9.64-4.49,22.93,22.93,0,0,0-7.17,8.84h0c-5.27,10.07,5.78,17.67,13,6.49l-4-3c3.86-6.22,9.92-9.51,19.17-8.91-12.72,9.35-20.38,25.25-20.9,50.39a97.47,97.47,0,0,0-48.58,0c-.52-25.14-8.18-41-20.9-50.39,9.25-.6,15.31,2.69,19.17,8.91l-4,3c7.23,11.18,18.3,3.58,13-6.49l.07,0a22.79,22.79,0,0,0-7.15-8.81,9.62,9.62,0,0,1,9.64,4.49L83.54,86c9.23,14.27,17.27,6,15.32-1.39a5.48,5.48,0,0,1-4.92-5.84L97.23,59V77.06a2.88,2.88,0,0,0,5.76,0V59l3.29,19.79a5.44,5.44,0,0,1-4.63,5.78ZM80.44,111.81l-.52,1.62h-1.7l1.38,1L79.07,116l1.37-1,1.37,1-.53-1.62,1.38-1H81l-.52-1.61Zm40,0-.52,1.62h-1.69l1.37,1-.53,1.61,1.37-1,1.37,1-.52-1.62,1.38-1H121l-.52-1.61ZM100.23,104V122l-.56,1.5c1.87,0,3.73,0,5.61.14l-.65-1.54V110.61c.91,2.23,1.81,4.47,2.72,6.72s1.82,4.53,2.75,6.81c1.59.27,3.18.6,4.77,1-.14-.51-.27-1-.4-1.53V106l.57-1.3c-1.88-.55-3.75-1-5.61-1.39l.64,1.61v11.67c-.91-2.34-1.82-4.68-2.74-7s-1.82-4.61-2.72-6.89c-1.6-.09-3.19-.13-4.78-.12.13.48.27,1,.4,1.44Zm-9.94,3.66v12.86l3-.42,1-1.12v-2.79l-.84-1c-1,.78-2.1,1.57-3.14,2.38V113.3q2-1.53,4-3v-2.24l-1-.89c-1,.15-2,.3-3,.48Zm-4.73-2.9.31,1.33v17.66c-.11.5-.21,1-.31,1.49l.67-.13c1.36-.28,2.71-.53,4.07-.75,1.77-.26,3.55-.47,5.32-.64,1-1,2-2,3-2.92v-6.59c-.58-.46-1.16-.93-1.75-1.38l1.75-1.62v-5.71c-1-.88-2-1.75-3-2.6q-2.67.3-5.32.77c-1.59.32-3.17.67-4.74,1.07ZM76,136v5a101.64,101.64,0,0,1,48.6,0v-5A94.22,94.22,0,0,0,76,136Z" transform="translate(-7.25 -7)"/></svg>
