<svg id="Layer_1" data-name="Layer 1" xmlns="http://www.w3.org/2000/svg" viewBox="0 0 100 100"><title>Untitled-1</title><path d="M39.8,54.21v5.66q2-1.53,4-3V54.61c-.34-.29-.67-.6-1-.89C41.81,53.86,40.8,54,39.8,54.21Z"/><path d="M25.36,82.74v5.05a110.17,110.17,0,0,1,24.53-3,110.1,110.1,0,0,1,24.53,3V82.74A95.55,95.55,0,0,0,25.36,82.74Z"/><path d="M39.8,64.22v3c1-.17,2-.3,3-.43.33-.38.66-.75,1-1.12V62.81l-.86-1Z"/><path d="M76.17,38.61l4,3c-9.93,15.33-20.85-2.27-6-15.43a9.7,9.7,0,0,0-9.71,4.52l2,1.42c-7.38,11.9-15.1,8.63-15.1,3.16V31A5.53,5.53,0,0,0,56.3,25.1C55.91,20.87,55.68,7.22,53,5V23.38a2.9,2.9,0,0,1-2.9,2.9H49.7a2.9,2.9,0,0,1-2.9-2.9V5c-2.69,2.22-2.93,15.88-3.32,20.09a5.53,5.53,0,0,0,5,5.88v4.28c0,5.46-7.73,8.73-15.1-3.16l2-1.43a9.71,9.71,0,0,0-9.71-4.51c14.86,13.16,3.94,30.76-6,15.43l4-3a19.27,19.27,0,0,0-19.31-9c12.83,9.42,20.54,25.43,21.07,50.75a97.31,97.31,0,0,1,24.5-3.1h0a97.29,97.29,0,0,1,24.49,3.1c.53-25.32,8.26-41.33,21.07-50.75A19.27,19.27,0,0,0,76.17,38.61Zm-44.91,24-1.38-1-1.38,1L29,61l-1.38-1h1.7l.54-1.64L30.41,60h1.7l-1.38,1ZM48.14,57.8l-1.76,1.64c.59.45,1.17.92,1.76,1.39v6.63c-1,1-2,2-3,2.94-1.78.17-3.57.39-5.35.65-1.37.22-2.73.47-4.1.75l-.67.13c.1-.52.2-1,.3-1.51V52.63c-.1-.44-.2-.89-.31-1.35h0l.67-.16c1.37-.34,2.73-.64,4.1-.91,1.78-.31,3.57-.57,5.35-.78,1,.85,2,1.73,3,2.63Zm16.4,14c-1.58-.38-3.2-.71-4.8-1L57,64c-.92-2.26-1.83-4.51-2.75-6.75V68.71c.21.53.44,1.05.66,1.58-1.89-.11-3.77-.16-5.65-.15.19-.52.38-1,.56-1.51V50.54h0c-.14-.48-.27-1-.4-1.46,1.6,0,3.21,0,4.81.12.91,2.3,1.83,4.61,2.74,6.94s1.83,4.69,2.75,7V51.43c-.22-.52-.44-1.08-.65-1.62,1.88.38,3.77.85,5.65,1.4l-.57,1.32V70.25Zm7-9.16-1.38-1-1.38,1L69.27,61l-1.38-1H69.6l.53-1.64L70.65,60h1.71L71,61Z"/></svg>