<svg id="Group_2724" data-name="Group 2724" xmlns="http://www.w3.org/2000/svg" width="98.577" height="89.535" viewBox="0 0 98.577 89.535">
  <path id="Path_2" data-name="Path 2" d="M56.488,88.8a105.506,105.506,0,0,0-26.52,3.349C29.4,64.761,21.051,47.445,7.2,37.252c10.069-.647,16.669,2.942,20.876,9.715l-4.3,3.217c10.739,16.582,22.55-2.461,6.479-16.7,5.065-.324,8.387,1.479,10.5,4.888L38.593,39.92c7.981,12.861,16.353,9.32,16.338,3.409L54.916,38.7c-3.134-.519-5.885-3.221-5.362-6.363C49.971,27.77,50.231,13,53.14,10.6V30.46A3.146,3.146,0,0,0,56.278,33.6c.071,0,.139,0,.211-.008s.139.008.211.008a3.146,3.146,0,0,0,3.138-3.138V10.6C62.742,13,63,27.77,63.423,32.341c.519,3.142-2.231,5.844-5.362,6.363l-.015,4.624C58.031,49.24,66.4,52.781,74.38,39.92l-2.164-1.547c2.115-3.409,5.437-5.211,10.5-4.888-16.071,14.238-4.259,33.282,6.476,16.7l-4.3-3.217c4.207-6.773,10.81-10.363,20.88-9.715-13.854,10.193-22.2,27.51-22.768,54.9A105.527,105.527,0,0,0,56.488,88.8ZM29.953,94.679v5.46a118.948,118.948,0,0,1,26.535-3.21,118.974,118.974,0,0,1,26.535,3.21v-5.46a103.212,103.212,0,0,0-53.07,0Z" transform="translate(-7.2 -10.604)" fill="#ff6301" fill-rule="evenodd"/>
  <path id="Path_3" data-name="Path 3" d="M16.318,25.942l.57,1.764,1.848-.007-1.5,1.087.573,1.756-1.492-1.087-1.492,1.087.573-1.756L13.9,27.7l1.848.007Z" transform="translate(11.322 31.772)" fill="#fff" fill-rule="evenodd"/>
  <path id="Path_4" data-name="Path 4" d="M27.9,25.942l.566,1.764,1.848-.007-1.5,1.087.573,1.756L27.9,29.455l-1.5,1.087.577-1.756-1.5-1.087,1.848.007Z" transform="translate(43.305 31.772)" fill="#fff" fill-rule="evenodd"/>
  <path id="Path_5" data-name="Path 5" d="M16.025,25.383h0c.241-.064.482-.124.722-.184,1.479-.365,2.961-.689,4.444-.982q2.89-.508,5.787-.847c1.08.922,2.152,1.874,3.232,2.837v6.209c-.636.6-1.268,1.178-1.9,1.772.632.493,1.264,1,1.9,1.509v7.172c-1.08,1.042-2.152,2.115-3.232,3.18-1.93.184-3.861.421-5.787.7q-2.224.361-4.444.809c-.241.049-.482.1-.722.147.113-.546.218-1.087.331-1.633V36.453q0-4.809,0-9.614c-.109-.485-.222-.971-.335-1.456Zm5.166,3.161h0V42.575c1.084-.177,2.171-.324,3.259-.463.357-.414.719-.809,1.084-1.215V37.849c-.3-.354-.617-.707-.926-1.061q-1.71,1.27-3.417,2.589V34.666q2.167-1.654,4.342-3.24V28.984c-.365-.316-.726-.647-1.084-.963C23.362,28.175,22.275,28.352,21.191,28.544Z" transform="translate(17.181 24.665)" fill="#fff" fill-rule="evenodd"/>
  <path id="Path_6" data-name="Path 6" d="M20.728,24.848c-.147-.527-.29-1.05-.433-1.577q2.6-.011,5.2.132,1.484,3.725,2.969,7.5c.99,2.529,1.983,5.076,2.973,7.62,0-2.115-.008-4.241-.008-6.355s0-4.233,0-6.359c-.233-.587-.47-1.174-.7-1.757q3.053.621,6.111,1.516c-.211.478-.418.948-.621,1.426q-.006,4.792,0,9.591v9.58c.147.561.29,1.11.437,1.671-1.735-.418-3.466-.771-5.2-1.072q-1.49-3.731-2.976-7.424T25.5,32.031c0,2.07,0,4.15,0,6.231s.008,4.15.011,6.224c.23.561.467,1.118.7,1.682q-3.059-.175-6.111-.158c.207-.546.414-1.091.617-1.641V24.848Z" transform="translate(28.47 24.391)" fill="#fff" fill-rule="evenodd"/>
</svg>
