<svg xmlns="http://www.w3.org/2000/svg" width="11.753" height="10.886" viewBox="0 0 11.753 10.886"><defs><style>.a{opacity:0.7;}.b{fill:#ff6301;}</style></defs><g class="a" transform="translate(0 0)"><path class="b" d="M19.747,14.419a1.194,1.194,0,0,0-1.175-1.21H16.811v-.6a.588.588,0,1,0-1.175,0v.6H12.112v-.6a.588.588,0,1,0-1.175,0v.6H9.175A1.194,1.194,0,0,0,8,14.419v7.257a1.194,1.194,0,0,0,1.175,1.21s9.036-.008,9.4,0a1.129,1.129,0,0,0,.868-.361,1.11,1.11,0,0,0,.307-.786C19.759,21.444,19.747,14.419,19.747,14.419ZM9.175,21.676V14.419h1.762v.6a.588.588,0,1,0,1.175,0v-.6h3.524v.6a.588.588,0,1,0,1.175,0v-.6h1.762c.017,0,.011,7.226,0,7.257Z" transform="translate(-8 -12)"/></g></svg>