<svg xmlns="http://www.w3.org/2000/svg" width="52.255" height="62.708" viewBox="0 0 52.255 62.708"><defs><style>.a{fill:#ea5607;}</style></defs><g transform="translate(-42.67)"><g transform="translate(63.573 20.901)"><path class="a" d="M244.21,194.466,215.469,170.95a1.307,1.307,0,0,0-2.132,1.014v39.192a1.312,1.312,0,0,0,.928,1.252,1.355,1.355,0,0,0,.379.055,1.307,1.307,0,0,0,1.087-.583l10.065-15.094h17.589a1.309,1.309,0,0,0,.826-2.32Zm-19.115-.293a1.307,1.307,0,0,0-1.087.58L215.95,206.84V174.721l23.777,19.452Z" transform="translate(-213.337 -170.656)"/></g><g transform="translate(63.573)"><g transform="translate(0)"><path class="a" d="M214.643,0a1.307,1.307,0,0,0-1.306,1.306V11.758a1.306,1.306,0,1,0,2.613,0V1.306A1.307,1.307,0,0,0,214.643,0Z" transform="translate(-213.337)"/></g></g><g transform="translate(42.67 20.903)"><g transform="translate(0)"><path class="a" d="M54.428,170.667H43.976a1.306,1.306,0,1,0,0,2.613H54.428a1.306,1.306,0,1,0,0-2.613Z" transform="translate(-42.67 -170.667)"/></g></g><g transform="translate(74.024 20.903)"><path class="a" d="M310.428,170.667H299.976a1.306,1.306,0,1,0,0,2.613h10.451a1.306,1.306,0,1,0,0-2.613Z" transform="translate(-298.67 -170.667)"/></g><g transform="translate(48.791 6.124)"><g transform="translate(0)"><path class="a" d="M102.27,57.771l-7.392-7.389a1.306,1.306,0,0,0-1.847,1.847l7.392,7.389a1.312,1.312,0,0,0,.925.382,1.291,1.291,0,0,0,.922-.382A1.307,1.307,0,0,0,102.27,57.771Z" transform="translate(-92.649 -50)"/></g></g><g transform="translate(48.791 28.296)"><g transform="translate(0)"><path class="a" d="M102.27,231.417a1.307,1.307,0,0,0-1.847,0l-7.392,7.389a1.305,1.305,0,0,0,.925,2.229,1.294,1.294,0,0,0,.922-.384l7.392-7.386A1.308,1.308,0,0,0,102.27,231.417Z" transform="translate(-92.649 -231.035)"/></g></g><g transform="translate(70.961 6.124)"><g transform="translate(0)"><path class="a" d="M283.283,50.382a1.307,1.307,0,0,0-1.847,0l-7.392,7.389A1.305,1.305,0,0,0,274.969,60a1.291,1.291,0,0,0,.922-.382l7.392-7.389A1.307,1.307,0,0,0,283.283,50.382Z" transform="translate(-273.662 -50)"/></g></g></g></svg>