<svg xmlns="http://www.w3.org/2000/svg" width="59.908" height="59.905" viewBox="0 0 59.908 59.905"><defs><style>.a{fill:#ea5607;}</style></defs><g transform="translate(0 -0.011)"><g transform="translate(0 0.011)"><g transform="translate(0 0)"><path class="a" d="M58.317,20.569,39.347,1.6a5.45,5.45,0,0,0-7.691,0L1.588,31.667a5.45,5.45,0,0,0,0,7.691L3.927,41.7h0L19.649,57.42H17.473a1.248,1.248,0,0,0,0,2.5h24.96a1.248,1.248,0,1,0,0-2.5H29.157l29.16-29.16A5.444,5.444,0,0,0,58.317,20.569Zm-1.765,5.926L26.483,56.563a2.921,2.921,0,0,1-2.076.856H24.4a2.92,2.92,0,0,1-2.075-.856L6.575,40.815,35.452,11.938a1.248,1.248,0,1,0-1.765-1.765L4.81,39.051,3.353,37.593a2.954,2.954,0,0,1,0-4.161L33.422,3.364a2.955,2.955,0,0,1,4.161,0l6.752,6.752L15.457,38.993a1.248,1.248,0,0,0,1.765,1.765L46.1,11.88,56.552,22.333A2.946,2.946,0,0,1,56.552,26.494Z" transform="translate(0 -0.011)"/><path class="a" d="M172.61,305.306a1.248,1.248,0,0,0-1.765,0l-9.821,9.821a1.248,1.248,0,1,0,1.765,1.765l9.821-9.821A1.248,1.248,0,0,0,172.61,305.306Z" transform="translate(-141.86 -269.262)"/><path class="a" d="M195.22,384.982l-4.028,4.028a1.248,1.248,0,0,0,1.765,1.765l4.028-4.028a1.248,1.248,0,0,0-1.765-1.765Z" transform="translate(-168.498 -339.615)"/><path class="a" d="M253.3,353.307l-.529.529a1.248,1.248,0,1,0,1.765,1.765l.529-.529a1.248,1.248,0,0,0-1.765-1.765Z" transform="translate(-222.871 -311.646)"/><path class="a" d="M351.036,161.035a1.248,1.248,0,0,0-1.765,0l-5.3,5.3a1.248,1.248,0,0,0,0,1.765l3.53,3.53a1.248,1.248,0,0,0,1.765,0l5.295-5.295a1.248,1.248,0,0,0,0-1.765Zm-2.648,7.942-1.765-1.765,3.53-3.53,1.765,1.765Z" transform="translate(-303.405 -141.871)"/><path class="a" d="M310.921,57.352a1.244,1.244,0,0,0,.883-.366l.529-.53a1.248,1.248,0,1,0-1.765-1.765l-.529.53a1.248,1.248,0,0,0,.883,2.13Z" transform="translate(-273.439 -47.971)"/><path class="a" d="M100.461,355.3l-.529.529a1.248,1.248,0,0,0,1.765,1.765l.529-.529a1.248,1.248,0,1,0-1.765-1.765Z" transform="translate(-87.916 -313.404)"/></g></g></g></svg>