<svg width="40" height="26" viewBox="0 0 40 26" fill="none" xmlns="http://www.w3.org/2000/svg">
<path d="M20.5625 0.334373C19.2031 0.775 18.3969 2.1625 18.6875 3.55937C18.875 4.45937 19.5969 5.29375 20.4219 5.56562C20.6 5.62187 20.7125 5.725 20.7313 5.85625C20.7594 6.05312 20.7313 6.0625 20.1125 6.0625C18.5188 6.0625 15.9219 6.7375 14.2156 7.59062C12.7344 8.34062 11.7031 9.1 10.3813 10.4125C9.07813 11.725 8.30938 12.7656 7.57812 14.2188C6.78125 15.8031 6.19063 17.875 6.06875 19.5062L6.00313 20.3125H4.625C3.40625 20.3125 3.22813 20.3312 3.09688 20.4812C3.00313 20.575 2.9375 20.7625 2.9375 20.8937C2.9375 21.1375 4.59688 25.1219 4.86875 25.5344L5 25.75H21.35C36.9125 25.75 37.7 25.7406 37.8406 25.5812C37.925 25.4875 38.4219 24.4187 38.9375 23.1906C40.1938 20.2469 40.2125 20.3125 38.1781 20.3125H36.7906L36.7438 19.9094C36.5656 18.4469 36.4531 17.8281 36.2563 17.0687C34.6906 11.0219 29.1781 6.44687 23.0281 6.09062C22.0906 6.03437 22.0625 6.025 22.0625 5.80937C22.0625 5.66875 22.1188 5.59375 22.2313 5.59375C22.6625 5.59375 23.4781 4.9 23.825 4.23438C24.0406 3.83125 24.0781 3.65312 24.0781 2.96875C24.0781 2.32187 24.0406 2.09687 23.8625 1.77812C23.3281 0.765623 22.6156 0.315624 21.5 0.278124C21.1156 0.268749 20.6938 0.287498 20.5625 0.334373ZM22.2125 1.79688C22.9719 2.29375 23.0188 3.5125 22.2969 4.08437C21.4438 4.74062 20.3 4.38437 19.9906 3.3625C19.6156 2.09687 21.0875 1.05625 22.2125 1.79688ZM22.8969 7.375C24.8281 7.55312 26.1125 7.9 27.8281 8.73438C29.1969 9.4 30.3406 10.2156 31.4938 11.3687C33.7344 13.6094 35.0375 16.3937 35.4313 19.7687L35.4875 20.3125H21.4156H7.34375V19.9094C7.34375 18.7187 7.94375 16.4781 8.65625 14.9969C9.51875 13.225 11.1406 11.2562 12.725 10.075C15.6125 7.92812 18.9781 7.02812 22.8969 7.375ZM38.1594 21.6531C38.1406 21.7188 37.85 22.3937 37.5312 23.1531L36.9406 24.5312L21.3688 24.5125L5.80625 24.4844L5.44063 23.6406C5.24375 23.1719 4.95312 22.5156 4.8125 22.1594L4.54063 21.5312H21.3781C34.8969 21.5312 38.1969 21.55 38.1594 21.6531Z" fill="#FC4412"/>
<path d="M24.9687 9.15626C24.7624 9.36251 24.7249 9.71876 24.8749 10C24.9218 10.0938 25.1843 10.2438 25.4562 10.3375C26.2343 10.5906 27.1999 11.0688 28.0624 11.6313C28.8968 12.175 29.2437 12.2688 29.4968 11.9875C29.6468 11.8188 29.6843 11.6781 29.6655 11.3406C29.6468 10.9469 27.7624 9.78438 26.2906 9.25001C25.3906 8.92188 25.2218 8.90313 24.9687 9.15626Z" fill="#FC4412"/>
<path d="M30.5186 12.775C30.1623 13.0187 30.2373 13.4781 30.7436 14.1531C31.3061 14.9031 31.4936 15.0625 31.8123 15.0625C32.1404 15.0625 32.3748 14.8 32.3748 14.4156C32.3748 14.1906 32.2342 13.9281 31.8592 13.4219C31.2217 12.5781 30.9686 12.4562 30.5186 12.775Z" fill="#FC4412"/>
<path d="M3.03125 5.40625C2.92813 5.50937 2.84375 5.71562 2.84375 5.875C2.84375 6.03437 2.92813 6.24062 3.03125 6.34375C3.20938 6.52187 3.34063 6.53125 7.37188 6.53125C10.9719 6.53125 11.5438 6.5125 11.7313 6.38125C12.0031 6.19375 12.0125 5.66875 11.75 5.40625C11.5719 5.22812 11.4406 5.21875 7.39063 5.21875C3.34063 5.21875 3.20938 5.22812 3.03125 5.40625Z" fill="#FC4412"/>
<path d="M0.359175 9.20312C0.0779246 9.48437 0.0685496 9.70937 0.321675 10.0375L0.509175 10.2812H4.0623C7.3623 10.2812 7.61543 10.2719 7.82168 10.1125C8.1123 9.86875 8.1123 9.38125 7.82168 9.1375C7.61543 8.97812 7.3623 8.96875 4.09043 8.96875H0.584175L0.359175 9.20312Z" fill="#FC4412"/>
<path d="M0.303027 13.3375C0.237402 13.4219 0.181152 13.6375 0.181152 13.8156C0.181152 14.3875 0.265527 14.4062 2.74053 14.4062C3.95928 14.4062 4.99991 14.3687 5.06553 14.3312C5.12178 14.2937 5.22491 14.1437 5.27178 14.0031C5.37491 13.7312 5.28116 13.4125 5.05616 13.2625C4.99991 13.225 3.93116 13.1875 2.69365 13.1875C0.734278 13.1875 0.415528 13.2062 0.303027 13.3375Z" fill="#FC4412"/>
</svg>
