<svg width="24" height="22" viewBox="0 0 24 22" fill="none" xmlns="http://www.w3.org/2000/svg">
<path d="M23.2857 15.5083C23.6555 15.4882 23.9495 15.1824 23.9495 14.8071C23.9495 12.7838 22.3253 11.1989 20.252 11.1989H19.5668L18.7294 7.22379C19.5375 6.8727 20.1043 6.06636 20.1043 5.12965C20.1043 3.87143 19.0819 2.84778 17.8252 2.84778H14.5854C14.1976 2.84778 13.8832 3.16259 13.8832 3.5509V4.42653H12.1568C11.769 4.42653 11.4546 4.74134 11.4546 5.12965C11.4546 5.51797 11.769 5.83278 12.1568 5.83278H13.8832V6.7084C13.8832 7.09672 14.1976 7.41153 14.5854 7.41153H14.8973C14.3158 8.09914 13.9641 8.98737 13.9641 9.95679V13.958C13.9641 13.9785 13.9475 13.9952 13.927 13.9952H11.0901C11.0738 13.9952 11.0591 13.9842 11.0545 13.9685L10.2897 11.381C10.9061 11.2161 11.3615 10.6524 11.3615 9.98403C11.3615 8.39698 10.0719 7.10586 8.48686 7.10586H2.15934C0.968719 7.10581 0 8.0757 0 9.26783C0 10.3577 0.809672 11.2612 1.85831 11.4084C0.745875 12.4047 0.0443906 13.852 0.0443906 15.4605V17.6495C0.0443906 18.0378 0.358828 18.3526 0.746672 18.3526H1.35431C1.68141 19.9858 3.12459 21.22 4.85058 21.22C6.57656 21.22 8.01975 19.9858 8.34684 18.3526H16.9376C17.2647 19.9858 18.7079 21.22 20.4339 21.22C22.4002 21.22 24 19.6182 24 17.6495C24 16.8468 23.7339 16.1053 23.2857 15.5083ZM22.4299 14.104H20.849C20.7127 14.0881 20.5744 14.079 20.4339 14.079C20.1822 14.079 19.9367 14.1057 19.6996 14.1555V12.6051H20.2521C21.2806 12.6051 22.131 13.2242 22.4299 14.104ZM15.2877 4.25398H17.8252C18.3075 4.25398 18.6998 4.64679 18.6998 5.12961C18.6998 5.61242 18.3075 6.00523 17.8252 6.00523H15.2877V4.25398ZM11.0902 15.4014H13.927C14.722 15.4014 15.3687 14.7539 15.3687 13.958V9.95675C15.3687 8.74822 16.2165 7.73412 17.3479 7.47945L18.2951 11.9752V14.7944C17.6078 15.3119 17.1128 16.0719 16.9377 16.9463H9.95564C9.62766 14.4236 7.54444 12.5362 4.94428 12.5362C3.78483 12.5362 2.74392 12.9149 1.92267 13.566C2.60105 12.2961 3.93848 11.4299 5.47467 11.4299H8.83964L9.70786 14.3675C9.88767 14.9763 10.4561 15.4014 11.0902 15.4014ZM1.506 16.9463C1.62872 16.1983 1.94827 15.5235 2.43694 15.0007C3.07477 14.3182 3.9652 13.9424 4.94419 13.9424C6.75553 13.9424 8.21883 15.2153 8.53298 16.9463H1.506V16.9463ZM2.15934 10.0236C1.74314 10.0236 1.40452 9.68459 1.40452 9.26783C1.40452 8.85106 1.74314 8.51201 2.15934 8.51201H8.48686C9.29751 8.51201 9.957 9.17229 9.957 9.98394C9.951 10.0129 9.90469 10.032 9.81848 10.0235C9.23423 10.0235 9.40125 10.0235 9.27956 10.0235C8.44045 10.0236 2.16342 10.0236 2.15934 10.0236ZM4.85058 19.8137C3.9045 19.8137 3.099 19.2017 2.80678 18.3526H6.89437C6.60216 19.2017 5.79666 19.8137 4.85058 19.8137ZM20.4339 19.8137C19.242 19.8137 18.2724 18.8428 18.2724 17.6495C18.2724 16.4561 19.2421 15.4853 20.4339 15.4853C21.6258 15.4853 22.5955 16.4561 22.5955 17.6495C22.5955 18.8428 21.6258 19.8137 20.4339 19.8137Z" fill="#0F0F0F"/>
<path d="M20.434 18.3573C20.8244 18.3573 21.1409 18.0404 21.1409 17.6495C21.1409 17.2586 20.8244 16.9418 20.434 16.9418C20.0436 16.9418 19.7271 17.2586 19.7271 17.6495C19.7271 18.0404 20.0436 18.3573 20.434 18.3573Z" fill="#0F0F0F"/>
<path d="M0.731578 5.06762H7.03008C7.41792 5.06762 7.73236 4.75281 7.73236 4.3645C7.73236 3.97619 7.41792 3.66138 7.03008 3.66138H0.731578C0.343734 3.66138 0.0292969 3.97619 0.0292969 4.3645C0.0292969 4.75281 0.343734 5.06762 0.731578 5.06762Z" fill="#0F0F0F"/>
<path d="M3.06483 2.1864H9.41761C9.80545 2.1864 10.1199 1.87159 10.1199 1.48327C10.1199 1.09496 9.80545 0.780151 9.41761 0.780151H3.06483C2.67699 0.780151 2.36255 1.09496 2.36255 1.48327C2.36255 1.87159 2.67699 2.1864 3.06483 2.1864Z" fill="#0F0F0F"/>
</svg>
