<svg width="48" height="48" viewBox="0 0 48 48" fill="none" xmlns="http://www.w3.org/2000/svg">
<path d="M22.0545 8.01498C20.7754 8.27166 19.7451 8.84137 18.8568 9.78671C17.8146 10.8886 17.2343 12.2095 17.1573 13.6557L17.1218 14.3005H15.5999C13.8471 14.3005 13.6458 14.3381 13.1602 14.7576C12.7871 15.0768 12.5621 15.4087 12.4318 15.8344C12.3667 16.0598 12.1476 18.6704 11.6561 25.1939C10.8863 35.4048 10.8804 35.4361 11.2061 36.4315C11.4962 37.3393 11.7686 37.7963 12.4318 38.4975C12.9174 39.0108 13.1187 39.1799 13.5569 39.4178C13.853 39.5743 14.2912 39.7746 14.534 39.856L14.9781 40H23.002H31.0258L31.4699 39.856C31.7127 39.7746 32.1568 39.5743 32.447 39.4178C32.8852 39.1799 33.0865 39.0108 33.5721 38.4975C34.2353 37.7963 34.5077 37.3393 34.7979 36.4315C35.1235 35.4361 35.1176 35.4048 34.3478 25.1876C33.8445 18.5076 33.6431 16.0598 33.5662 15.8344C33.3767 15.2334 32.9858 14.7638 32.4233 14.4758C32.1627 14.3381 32.0739 14.3318 30.5165 14.3131L28.8821 14.2943L28.8466 13.6557C28.7104 11.1452 27.0109 8.94779 24.6067 8.18401C24.1685 8.04628 23.9672 8.02124 23.15 8.00245C22.6289 7.99619 22.1374 8.00245 22.0545 8.01498ZM24.2929 10.1248C24.9265 10.3564 25.341 10.6381 25.8443 11.1703C26.5727 11.9466 26.9576 12.798 27.0168 13.7809L27.0464 14.3005H23.0079H18.9752V13.9374C18.9812 12.5163 19.9345 10.995 21.261 10.3251C21.9005 9.9933 22.2677 9.91817 23.1204 9.94322C23.7362 9.95574 23.9317 9.98704 24.2929 10.1248ZM17.1514 17.556L17.1691 18.9333L17.3942 19.165C17.6073 19.3966 17.631 19.4029 18.0278 19.4029C18.4245 19.4029 18.4482 19.3904 18.6555 19.1775C18.9338 18.8832 18.9693 18.6704 18.9752 17.2868V16.1787H23.002H27.0287V17.2868C27.0346 18.6704 27.0701 18.8832 27.3484 19.1775C27.5557 19.3904 27.5794 19.4029 27.9761 19.4029C28.3729 19.4029 28.3966 19.3966 28.6097 19.165L28.8348 18.9333L28.8525 17.5498L28.8703 16.1724L30.256 16.1912C31.4699 16.21 31.6535 16.2225 31.7423 16.3164C31.8311 16.4103 31.9377 17.6437 32.5121 25.3003C32.8792 30.1835 33.1812 34.4281 33.1812 34.7412C33.1812 35.0479 33.1576 35.4298 33.122 35.5863C32.8911 36.6569 32.0088 37.6398 30.9666 37.9841L30.552 38.1218H23.002H15.4519L15.0374 37.9841C14.2261 37.7149 13.4681 37.0263 13.1187 36.2562C12.8878 35.7491 12.8227 35.4173 12.8167 34.8038C12.8167 34.2403 14.0958 16.8924 14.1669 16.5543C14.2379 16.2037 14.3386 16.1787 15.819 16.1787H17.1336L17.1514 17.556Z" fill="#FC4412"/>
<path d="M26.1642 22.7672C26.0576 22.7935 25.8977 22.8726 25.8089 22.9517C25.7141 23.0242 24.7726 24.0522 23.7126 25.2318L21.794 27.3736L20.9531 26.4576C20.053 25.4757 19.9524 25.4098 19.4372 25.4888C19.2654 25.5152 19.1352 25.5943 18.9871 25.759C18.8036 25.9633 18.774 26.0358 18.7503 26.3851C18.7325 26.7014 18.7503 26.82 18.845 26.998C18.9101 27.1166 19.4845 27.7822 20.1122 28.4741C21.3439 29.8383 21.4979 29.9503 21.9776 29.858C22.1789 29.8119 22.4868 29.4956 24.7134 27.0177L27.2241 24.2301L27.2537 23.8479C27.2774 23.5645 27.2537 23.413 27.1768 23.2482C26.9932 22.8726 26.5609 22.6683 26.1642 22.7672Z" fill="#FC4412"/>
</svg>
