<svg width="24" height="24" viewBox="0 0 24 24" fill="none" xmlns="http://www.w3.org/2000/svg">
<path d="M9 15L15 9" stroke="#FF6301" stroke-width="1.5" stroke-linecap="round" stroke-linejoin="round"/>
<path d="M9.5 10C9.77614 10 10 9.77614 10 9.5C10 9.22386 9.77614 9 9.5 9C9.22386 9 9 9.22386 9 9.5C9 9.77614 9.22386 10 9.5 10Z" fill="#FF6301" stroke="#FF6301" stroke-width="1.5" stroke-linecap="round" stroke-linejoin="round"/>
<path d="M14.5 15C14.7761 15 15 14.7761 15 14.5C15 14.2239 14.7761 14 14.5 14C14.2239 14 14 14.2239 14 14.5C14 14.7761 14.2239 15 14.5 15Z" fill="#FF6301" stroke="#FF6301" stroke-width="1.5" stroke-linecap="round" stroke-linejoin="round"/>
<path d="M5.00046 7.19997C5.00046 6.6165 5.23225 6.05692 5.64483 5.64434C6.05741 5.23176 6.61698 4.99997 7.20046 4.99997H8.20046C8.78136 4.99964 9.33855 4.76957 9.75046 4.35997L10.4505 3.65997C10.6549 3.45437 10.898 3.29121 11.1657 3.17988C11.4334 3.06855 11.7205 3.01123 12.0105 3.01123C12.3004 3.01123 12.5875 3.06855 12.8552 3.17988C13.1229 3.29121 13.366 3.45437 13.5705 3.65997L14.2705 4.35997C14.6824 4.76957 15.2396 4.99964 15.8205 4.99997H16.8205C17.4039 4.99997 17.9635 5.23176 18.3761 5.64434C18.7887 6.05692 19.0205 6.6165 19.0205 7.19997V8.19997C19.0208 8.78087 19.2509 9.33806 19.6605 9.74997L20.3605 10.45C20.5661 10.6544 20.7292 10.8975 20.8406 11.1652C20.9519 11.4329 21.0092 11.72 21.0092 12.01C21.0092 12.2999 20.9519 12.587 20.8406 12.8547C20.7292 13.1225 20.5661 13.3655 20.3605 13.57L19.6605 14.27C19.2509 14.6819 19.0208 15.2391 19.0205 15.82V16.82C19.0205 17.4034 18.7887 17.963 18.3761 18.3756C17.9635 18.7882 17.4039 19.02 16.8205 19.02H15.8205C15.2396 19.0203 14.6824 19.2504 14.2705 19.66L13.5705 20.36C13.366 20.5656 13.1229 20.7287 12.8552 20.8401C12.5875 20.9514 12.3004 21.0087 12.0105 21.0087C11.7205 21.0087 11.4334 20.9514 11.1657 20.8401C10.898 20.7287 10.6549 20.5656 10.4505 20.36L9.75046 19.66C9.33855 19.2504 8.78136 19.0203 8.20046 19.02H7.20046C6.61698 19.02 6.05741 18.7882 5.64483 18.3756C5.23225 17.963 5.00046 17.4034 5.00046 16.82V15.82C5.00013 15.2391 4.77006 14.6819 4.36046 14.27L3.66046 13.57C3.45486 13.3655 3.2917 13.1225 3.18037 12.8547C3.06903 12.587 3.01172 12.2999 3.01172 12.01C3.01172 11.72 3.06903 11.4329 3.18037 11.1652C3.2917 10.8975 3.45486 10.6544 3.66046 10.45L4.36046 9.74997C4.77006 9.33806 5.00013 8.78087 5.00046 8.19997V7.19997" stroke="#FF6301" stroke-width="1.5" stroke-linecap="round" stroke-linejoin="round"/>
</svg>
