<svg xmlns="http://www.w3.org/2000/svg" width="4.225" height="4.226" viewBox="0 0 4.225 4.226"><defs><style>.a{fill:#c64c00;}</style></defs><g transform="matrix(0.993, -0.122, 0.122, 0.993, 0, 0.462)"><path class="a" d="M3.47.17a.582.582,0,0,0-.823,0L.341,2.476a.129.129,0,0,0-.033.057L0,3.628a.129.129,0,0,0,.159.159l1.095-.3a.129.129,0,0,0,.057-.033L3.621,1.145a.582.582,0,0,0,0-.823ZM.623,2.56,2.51.673l.609.609L1.231,3.169ZM.5,2.8l.486.486-.673.186ZM3.439.962,3.3,1.1,2.693.49,2.83.353a.323.323,0,0,1,.457,0L3.439.5A.324.324,0,0,1,3.439.962Zm0,0"/></g></svg>