<svg xmlns="http://www.w3.org/2000/svg" width="17.527" height="13.54" viewBox="0 0 17.527 13.54"><defs><style>.a{fill:#ff6301;}</style></defs><g transform="translate(0 0)"><g transform="translate(0.948 4.202)"><rect class="a" width="2.013" height="1.027"/></g><g transform="translate(0.948 8.31)"><rect class="a" width="2.013" height="1.027"/></g><g transform="translate(0 6.256)"><rect class="a" width="2.961" height="1.027"/></g><g transform="translate(3.988 0)"><path class="a" d="M123.259,58.245a6.77,6.77,0,1,0,6.77,6.77A6.777,6.777,0,0,0,123.259,58.245Zm0,12.513A5.743,5.743,0,1,1,129,65.015,5.749,5.749,0,0,1,123.259,70.758Z" transform="translate(-116.489 -58.245)"/></g><g transform="translate(10.062 3.708)"><path class="a" d="M294.957,169.874v-3.317H293.93v3.86l2.646,1.8.578-.849Z" transform="translate(-293.93 -166.557)"/></g></g></svg>