<svg width="18" height="18" viewBox="0 0 18 18" fill="none" xmlns="http://www.w3.org/2000/svg">
<path d="M3.75 9H2.25L9 2.25L15.75 9H14.25" stroke="#FF6301" stroke-width="1.5" stroke-linecap="round" stroke-linejoin="round"/>
<path d="M3.74999 9V14.25C3.74999 14.6478 3.90803 15.0294 4.18933 15.3107C4.47064 15.592 4.85217 15.75 5.24999 15.75H12.75C13.1478 15.75 13.5293 15.592 13.8107 15.3107C14.092 15.0294 14.25 14.6478 14.25 14.25V9" stroke="#FF6301" stroke-width="1.5" stroke-linecap="round" stroke-linejoin="round"/>
<path d="M6.75 15.75V11.25C6.75 10.8522 6.90804 10.4706 7.18934 10.1893C7.47064 9.90804 7.85218 9.75 8.25 9.75H9.75C10.1478 9.75 10.5294 9.90804 10.8107 10.1893C11.092 10.4706 11.25 10.8522 11.25 11.25V15.75" stroke="#FF6301" stroke-width="1.5" stroke-linecap="round" stroke-linejoin="round"/>
</svg>
