<svg xmlns="http://www.w3.org/2000/svg" width="108.877" height="68.41" viewBox="0 0 108.877 68.41"><path data-name="Path 3645" d="M31.674 58.078l-.217-.775h2.586l2.956 7.043-.007-6.249-.351-.8h3.04l-.307.8v9.522l.217.776h-2.588l-2.957-6.88.007 6.086.351.8h-3.039l.307-.8v-9.523zm23.181-47.824c-.8 2.986 2.447 6.324 6.167.579l-.933-.678a3.86 3.86 0 0 1 3.866-1.8 9.172 9.172 0 0 0-2.876 3.545h.007c-2.113 4.035 2.32 7.084 5.223 2.6l-1.584-1.181c1.549-2.494 3.979-3.816 7.687-3.576-5.1 3.752-8.173 10.127-8.382 20.209a39.064 39.064 0 0 0-19.48 0c-.209-10.082-3.282-16.456-8.381-20.209 3.707-.24 6.137 1.082 7.686 3.576l-1.582 1.185c2.9 4.485 7.337 1.436 5.223-2.6l.031-.015a9.169 9.169 0 0 0-2.87-3.532 3.861 3.861 0 0 1 3.866 1.8l-.933.678c3.7 5.723 6.927 2.425 6.143-.556a2.2 2.2 0 0 1-1.973-2.342L53.079.002v7.242a1.155 1.155 0 0 0 2.31 0V0l1.32 7.935a2.182 2.182 0 0 1-1.859 2.319zM46.347 21.18l-.209.647h-.681l.552.4-.212.647.549-.4.55.4-.211-.649.551-.4h-.68l-.21-.647zm16.037 0l-.209.647h-.68l.55.4-.211.647.55-.4.549.4-.208-.649.552-.4h-.681l-.209-.647zm-8.1-3.121v7.186l-.226.6q1.122-.008 2.249.058l-.26-.619v-4.586q.545 1.339 1.092 2.692c.364.905.73 1.819 1.1 2.733q.956.165 1.914.393c-.055-.205-.108-.409-.161-.613v-7.055l.228-.522q-1.126-.331-2.25-.558l.259.647v4.68c-.366-.938-.732-1.876-1.1-2.8s-.729-1.848-1.092-2.763q-.958-.053-1.914-.048c.053.194.106.386.161.58zm-3.986 1.466v5.16c.4-.064.8-.119 1.2-.169.133-.152.266-.3.4-.449v-1.121l-.34-.391c-.42.313-.839.629-1.258.953v-1.734q.8-.612 1.6-1.192v-.9l-.4-.356c-.4.058-.8.121-1.2.193zm-1.9-1.164l.124.535v7.081c-.042.2-.081.4-.121.6l.266-.054q.817-.167 1.635-.3 1.065-.155 2.131-.256c.4-.394.792-.787 1.188-1.173v-2.64c-.233-.186-.466-.373-.7-.555.233-.219.466-.434.7-.651v-2.29c-.4-.353-.792-.7-1.188-1.043q-1.067.125-2.131.311a36.223 36.223 0 0 0-1.901.43zM.179 63.28a287.8 287.8 0 0 1 28.89-3.85v-1.922A240.343 240.343 0 0 0 .179 62.29v.99zm79.916-3.7q14.39 1.224 28.782 3.7v-.99a269.517 269.517 0 0 0-28.782-4.653v1.946zm-64.4-25.744c.141.519.282 1.038.434 1.554-.5 2.952-1 5.944-1.488 8.966-.492 3.063-.977 6.155-1.466 9.3-.239.55-.478 1.109-.717 1.662 1.781-.247 3.562-.462 5.342-.681-.13-.471-.25-.95-.37-1.429q.164-1.438.359-2.87c.988-.068 1.976-.137 2.964-.2.131.905.26 1.8.4 2.7-.119.483-.24.967-.347 1.447 1.737-.172 3.5-.349 5.256-.519a58.14 58.14 0 0 1-.673-1.285q-.782-3.991-1.564-8.078a953.651 953.651 0 0 1-1.542-8.351c.152-.437.3-.874.467-1.308-2.356-.272-4.712-.59-7.058-.9zm3.551 6.352c.141 1.04.293 2.073.434 3.105s.293 2.054.445 3.075l-1.715.034c.141-1.044.272-2.088.413-3.126s.272-2.063.424-3.088zM0 31.337l.6.108c1.238.222 2.486.446 3.735.667 1.618.292 3.236.567 4.864.817.9 1.16 1.8 2.291 2.715 3.4v3.015c0 1 .01 2.008.01 3.009q-.8.784-1.6 1.592a92.209 92.209 0 0 0 1.607 1.583v1.747c0 1.736.011 3.472.011 5.205q-1.352 1.617-2.7 3.3c-1.63.235-3.247.493-4.865.766-1.248.212-2.5.426-3.735.632l-.586.1c.075-.616.162-1.238.26-1.858L.283 44.295q-.016-5.563 0-11.13c-.1-.607-.195-1.22-.282-1.832zm4.332 5.471q0 3.8.011 7.611t.022 7.606c.912-.1 1.824-.193 2.737-.284l.912-1.214c0-1.035-.011-2.073-.011-3.114a48.932 48.932 0 0 1-.771-1.183c-.966.751-1.922 1.528-2.878 2.323 0-1.7-.011-3.4-.011-5.109q1.824-1.353 3.638-2.618v-2.501q-.456-.6-.913-1.217l-2.736-.3zm23.324-.272q-.179-.655-.358-1.318c3.029.258 6.069.5 9.11.709.89.834 1.781 1.654 2.682 2.468 0 1.041-.005 2.082 0 3.12s.011 2.082.011 3.12q-1.059 1.034-2.117 2.082c.434.835.89 1.662 1.325 2.482s.89 1.631 1.346 2.44c.37.383.749.766 1.129 1.143l-5.777.3.3-1.251c-.38-.786-.748-1.58-1.118-2.374s-.738-1.594-1.108-2.4c-.467.008-.934.02-1.4.028 0 .826.011 1.655.011 2.479s.011 1.649.033 2.474c.2.411.391.82.6 1.226-1.727.131-3.442.258-5.158.392q.26-.685.521-1.362c-.011-2.624-.011-5.251-.021-7.877s-.011-5.253-.011-7.88zm4.008 2.289c0 .811-.005 1.622 0 2.43s.011 1.622.011 2.433c.879.006 1.759.014 2.649.026q.473-.421.944-.845c-.011-1-.011-2-.011-3-.336-.31-.662-.627-.988-.945-.868-.031-1.737-.065-2.606-.1zm10.218-2.59c.2.006.4.015.608.02 1.238.039 2.476.079 3.725.122 1.617.048 3.235.079 4.864.09.9.735 1.8 1.467 2.714 2.2v2.193c0 .729.012 1.464.012 2.192l-1.6 1.166q.8.571 1.6 1.138v1.269c0 1.262.011 2.521.011 3.784-.912.709-1.814 1.421-2.716 2.133-1.629.011-3.245.02-4.864.068q-1.873.055-3.714.113c-.207 0-.413.012-.608.017.087-.389.174-.777.271-1.166q-.016-3.548-.021-7.1c-.005-2.366-.011-4.734 0-7.1-.1-.38-.2-.76-.282-1.143zm4.333 3.26c0 1.684.01 3.375.01 5.056s0 3.371.011 5.052c.912-.014 1.824-.028 2.736-.028.3-.264.609-.525.912-.786 0-.721-.01-1.438-.01-2.159-.26-.278-.521-.553-.772-.831-.966.493-1.922.99-2.877 1.5v-3.388c1.216-.619 2.433-1.223 3.638-1.841v-1.733c-.3-.262-.608-.525-.912-.786-.912-.017-1.824-.037-2.735-.053zm9.033-3c.152.371.3.746.467 1.117v6.887c0 2.295.012 4.592.022 6.89-.174.38-.347.76-.511 1.14 3.855.051 7.721.137 11.575.267.207-1.146.414-2.293.631-3.444l-1.336.3c-2.106-.048-4.213-.1-6.308-.13V45.71c1.172 0 2.345.017 3.518.022l1.63.42c-.012-1.279-.012-2.561-.012-3.84l-1.5.4c-1.216.011-2.432.009-3.648.014v-3.339c1.422-.011 2.855-.029 4.289-.062.8.162 1.608.32 2.422.485q-.39-1.783-.781-3.56c-3.487.139-6.972.193-10.458.247zm13.726 2.139c0 1.957-.006 3.916 0 5.871s.01 3.92.01 5.877c.87.89 1.738 1.793 2.617 2.706q3.03.178 6.07.423l1.771 1.627q1.27-1.085 2.541-2.2c-.468-.573-.934-1.135-1.39-1.7 0-2.209-.011-4.419-.011-6.632v-6.628a375.67 375.67 0 0 0-2.813-2.524c-2.02.175-4.039.308-6.047.436q-1.385 1.4-2.748 2.746zm4.061 1.26c.283-.281.565-.559.858-.846.619-.02 1.238-.045 1.856-.073.284.263.577.525.87.785v4.68c0 1.563 0 3.126.011 4.686-.359.275-.706.548-1.053.817a75.378 75.378 0 0 0-1.619-.068c-.314-.3-.619-.585-.922-.877-.011-1.514-.011-3.034-.011-4.552s0-3.036.011-4.552zm9.36-4.788q.2.638.39 1.279v14.78q1.353 1.506 2.705 3.072c2.041.209 4.094.451 6.146.706q1.367-1.366 2.736-2.806-.015-4.242-.01-8.478v-8.481l.357-1.557c-1.629.205-3.246.411-4.864.613.13.474.261.947.4 1.418.011 2.357.033 4.717.043 7.077s.033 4.725.054 7.086c-.3.369-.6.737-.89 1.1-.641-.051-1.282-.1-1.921-.147l-.782-1.163v-13.6c.152-.477.3-.953.467-1.432l-4.832.53zm14.007-1.73c.152.494.314.987.477 1.486v19.17c-.173.511-.347 1.024-.51 1.526q5.782.826 11.586 1.768.309-2.652.63-5.33l-1.346.386q-3.161-.324-6.31-.632v-5.563c1.174.025 2.347.048 3.529.071l1.629.664v-5.897c-.5.228-1 .446-1.5.664-1.227.051-2.444.105-3.661.15v-4.86c1.434-.138 2.868-.3 4.3-.465q1.2.281 2.41.573-.39-2.744-.781-5.446-5.229.927-10.458 1.736zm12.184-7.3a368.355 368.355 0 0 1-42.034 4.661v2.046a288.782 288.782 0 0 0 42.032-5.716v-.99zm-64.039 4.8v2.008a40.765 40.765 0 0 1 19.49 0v-2a37.8 37.8 0 0 0-19.49 0zM0 26.076v.99a288.782 288.782 0 0 0 42.032 5.716v-2.046A368.345 368.345 0 0 1 0 26.079zm69.685 32l-.217-.775h2.585l2.957 7.043-.007-6.249-.351-.8h3.04l-.307.8v9.522l.217.776h-2.587l-2.957-6.878.007 6.086.351.8h-3.04l.307-.8v-9.523zm-8.1.917l-.01 7.732 1.55 1.688h3.582l1.726-1.688v-7.764l-1.658-1.658h-3.567l-1.624 1.692zm2.394.921l.511-.516h1.091l.517.516v5.821l-.625.541h-.955l-.544-.538.005-5.824zm-3.817-1.819l.3-.794h-2.99l.295.794v9.5l-.295.795h2.987l-.3-.795v-9.5zm-9.137 1.237v8.269l-.295.795h2.987l-.3-.795v-8.269h1.832l1.427.381-.48-2.414h-7.949l-.481 2.414 1.427-.381h1.831zm-8.64-2.029h4.1l-.276.8 1.81 9.5.4.794h-3.114l.2-.794-.225-1.528h-1.75l-.223 1.528.223.794h-3.149l.423-.794 1.768-9.5-.187-.8zm2.024 3.251l-.506 3.4h1.012z" fill="#ff6301" fill-rule="evenodd"/></svg>