<svg xmlns="http://www.w3.org/2000/svg" width="33.026" height="33.026" viewBox="0 0 33.026 33.026">
  <g id="Group_2889" data-name="Group 2889" opacity="0.996">
    <g id="noun_directions_2342263" transform="translate(9.604 9.592)">
      <g id="Layer_51" data-name="Layer 51" transform="translate(0 0)">
        <path id="Path_3551" data-name="Path 3551" d="M38.656,25.33v-.06a.538.538,0,0,0,0-.057l-.042-.063a.37.37,0,0,0-.03-.06v-.033h0L38.543,25a.424.424,0,0,0-.036-.039.158.158,0,0,0-.042-.036l-.051-.042h0l-.069-.036-.057-.03-.057-.018-.054-.015h-.236l-.057.015a.379.379,0,0,0-.054.018l-.06.03-.03.015-7.794,4.86h0a.262.262,0,0,0-.045.036l-.039.03h0a.337.337,0,0,0-.03.039.262.262,0,0,0-.036.045h0l-4.893,7.845a.038.038,0,0,1-.015.03.554.554,0,0,0-.03.06l-.018.054a.4.4,0,0,0-.015.057v.23a.536.536,0,0,0,.015.057l.018.051a.37.37,0,0,0,.03.06l.015.033h0a.519.519,0,0,0,.089.11h0a.414.414,0,0,0,.081.063h.015a.6.6,0,0,0,.1.045l.048.018a.8.8,0,0,0,.14.021h.027a.722.722,0,0,0,.14-.021.226.226,0,0,0,.048-.018.617.617,0,0,0,.1-.045h0l7.833-4.83h0a.3.3,0,0,0,.051-.036l.027-.021h0a.325.325,0,0,0,.03-.033.37.37,0,0,0,.042-.054h0L38.57,25.7v-.03a.554.554,0,0,0,.03-.06l.018-.054a.4.4,0,0,0,0-.057v-.113C38.618,25.368,38.656,25.348,38.656,25.33Zm-8.283,5.859,1.887,1.887-4.994,3.107ZM33.1,32.232l-1.887-1.887,4.994-3.107Z" transform="translate(-24.83 -24.79)" fill="#fff"/>
      </g>
    </g>
    <path id="Path_3554" data-name="Path 3554" d="M20.513,4A16.513,16.513,0,1,0,37.026,20.513,16.513,16.513,0,0,0,20.513,4Zm0,31.525A15.012,15.012,0,1,1,35.525,20.513,15.012,15.012,0,0,1,20.513,35.525Z" transform="translate(-4 -4)" fill="#fff"/>
  </g>
</svg>
