<svg id="Group_2888" data-name="Group 2888" xmlns="http://www.w3.org/2000/svg" width="33.026" height="33.026" viewBox="0 0 33.026 33.026">
  <g id="Group_51" data-name="Group 51" transform="translate(5.965 8.169)">
    <rect id="Rectangle_508" data-name="Rectangle 508" width="21.447" height="0.944" transform="translate(0 12.559)" fill="#fff"/>
    <path id="Path_29" data-name="Path 29" d="M735.507,162.942a.971.971,0,1,1-.971-.97A.971.971,0,0,1,735.507,162.942Z" transform="translate(-723.768 -161.972)" fill="#fff"/>
    <path id="Path_30" data-name="Path 30" d="M719.649,167.417c-10.461,0-8.888,9.753-8.888,9.753h17.882S730.111,167.417,719.649,167.417Zm-6.267,8.626h-1.73c0-7.433,5.938-8.141,8.043-8.141C714.091,167.9,713.383,176.043,713.383,176.043Z" transform="translate(-708.926 -165.503)" fill="#fff"/>
  </g>
  <path id="Path_3553" data-name="Path 3553" d="M20.513,4A16.513,16.513,0,1,0,37.026,20.513,16.513,16.513,0,0,0,20.513,4Zm0,31.525A15.012,15.012,0,1,1,35.525,20.513,15.012,15.012,0,0,1,20.513,35.525Z" transform="translate(-4 -4)" fill="#fff"/>
</svg>
