<svg xmlns="http://www.w3.org/2000/svg" xmlns:xlink="http://www.w3.org/1999/xlink" width="260.323" height="114.022" viewBox="0 0 260.323 114.022"><defs><style>.a,.d{fill:#fcf5f2;}.a{opacity:0.94;}.b{clip-path:url(#a);}.c{opacity:0.95;isolation:isolate;}.d{opacity:0.978;}</style><clipPath id="a"><rect class="a" width="260.323" height="114.022" transform="translate(-350.724 14684.372)"/></clipPath></defs><g transform="translate(350.724 -14684.372)"><g class="b"><path class="c" d="M49.061,546.711a61.945,61.945,0,0,0,16.026,7.157l.873.257c2.181.634,4.693,1.3,7.654,2.006,18.782,4.514,21.719,5.047,25.232,5.207a52.218,52.218,0,0,1,14.062,2.731c5.021,1.789,20.963,2.592,21.644,2.626.032,0,1.01.038,2.6.038a86.51,86.51,0,0,0,16.38-1.427c2.574-.537,4.524-.984,6.091-1.344,3.362-.772,4.877-1.12,6.835-1.025l.7-4.728,7.669-.433.254,4.122,20.189-5.978,10.076.448.046.177.217-.165c5.181.307.523-.391.523-.391,1.864-1.33,9.535-6.54,23.984-13.11,16.082-7.313,39.491-14.719,41.506-15.352l16.624,3.56c.1.026,2.157.534,7.126.079v-.492c-4.9.449-6.952-.05-6.986-.059l-8.273-1.772,2.281-21.169,12.972.323v-.406l-12.929-.321,2.106-19.52-.453-.039-2.111,19.544-6.366-.159,3.515-19.172,16.236-.8v-.407l-16.354.8-8.733-6.564,2.27-12.528h22.817v-.406H272.62l3.436-18.966.008-.045-3.416-10.36c9.192-8.142-4.27,2.646-20.793,17.3L245.273,454l4.364-8.463-.421-.163-4.383,8.5-16.993-5.02,15.685-28.79.016-.03.226-1.56h-.459l-.209,1.442-1.359,2.49-42.176,7.48-4.639-11.412h-.485l4.833,11.878,23.054-4.089,7.4,18.2-4.563,8.379L214.1,449.664l-1.7,6.39-16.009-3.89-20.006-5.79,15.606-24.317-1.158-3.583h-.948l1.123,3.477-11.48,17.892-11.316-3.993,7.24-14.976,10.916-2.4h-1.9l-9.235,2.034-.11.024-7.514,15.542L179.3,440.2l-3.8,5.927c-3.445-.835-5.221.851-5.663,1.357l-24.744-8.418-.858-.291-6.5-2.21,1.79-7.114-.341-.318L98.06,437.143l-13-11.012-.431-.137-10.464.363-.455.017-8.846.3-.455.022L35.04,427.932v.406l29.4-1.237.322,4.57H35.04v.4H64.787l.7,9.95c-.006.251-.184,6.979-.991,12.777a45.673,45.673,0,0,1-10.676-9.015l-.017-.02c-.152-.165-3.831-4.083-12.474-7.988-1.789-.81-3.889-1.652-6.289-2.468v.864c2.21.762,4.149,1.544,5.821,2.3,8.319,3.749,12.047,7.6,12.232,7.8A46.616,46.616,0,0,0,64.367,455.7a22.02,22.02,0,0,1-1.65,6.255c-.932,1.744-1.671,5.55-2.2,11.311-.426,4.685-.576,9.28-.612,10.624l-19.107.9L35.04,485v.812l5.806-.213,38.926-1.837c.736.1,5.215.122,23.422-9.055,4.442,3.257,9.391,6.915,13.111,9.735l-7.327,5.392.006-.066-16.757-1.193h-.05l-16.32,2.06L35.04,494.528v.816l40.106-3.827a19,19,0,0,1-2.729,3.657c-1.563,1.589-1.937,4.509-2.027,5.858l-14.177,1.442c-3.53.358-6.189,3.015-6.185,6.18l.012,8.308-15,1.934v.82l14.94-1.926-2.11,16.562-12.83-2.167v.5l13,2.2,13.149,3.906,4.67-.267-.241,6.2a30.9,30.9,0,0,1-3.486-.834c-2.968-.925-5.795-1.928-8.528-2.9A114.558,114.558,0,0,0,35.04,535.6v.414a114.562,114.562,0,0,1,18.393,5.347c2.738.971,5.57,1.975,8.547,2.9a31.438,31.438,0,0,0,3.621.86l-.31,7.948a61.2,61.2,0,0,1-15.731-7.039c-1.906-1.112-4.068-2.373-6.8-3.841a53.077,53.077,0,0,0-7.72-3.413v.884a51.752,51.752,0,0,1,7.247,3.23C45.008,544.346,47.161,545.6,49.061,546.711ZM222.779,426.183l18.715-3.319L230.009,443.95ZM98.893,560.527c-3.436-.157-6.345-.686-25.043-5.18-2.969-.714-5.481-1.375-7.659-2.01l.314-8.057c11.9,1.959,31.994,1.167,34.4,1.064l3.613,14.79a50.543,50.543,0,0,0-5.623-.606ZM134.6,482.461,123.4,489.038q-.624-.564-1.256-1.107c-.85-.733-2.539-2.053-4.7-3.694l2.414-1.776Zm-8.4-4.087,2.77-2.961,7.186-.48-.74,7.04h-8.33Zm9.893,4.184,7.021,2.346-3.944,9.033a40.048,40.048,0,0,0-5.3-.967,8.41,8.41,0,0,0-5.3,1.1c-1.3-1.386-2.864-2.928-4.524-4.444Zm106.359-23.622,4.4,1.443c-6.692,5.932-13.272,11.769-19.269,17.1l-2.534-2.823Zm-17.69,15.394-3.417-3.8L224.868,463l9.038,3.072Zm-30.3,68.528,4.025-1.2-1.673,6.209Zm2.058,5.433-16.08-1.017.421-3.848H192.54l1.484-.443Zm-4.063-5.347H178.576l-8.883-2.565a20.124,20.124,0,0,0-.865-5.865H172.1a6.811,6.811,0,0,0,2.7,3.017c.313.229.608.445.869.666a2.775,2.775,0,0,0,1.876.616,16.857,16.857,0,0,0,4.1-.854c1.033-.292,2.2-.624,3.533-.931,4.846-1.119,11.92-1.854,11.991-1.861h.035l2.789-1.117.879,1.086a3.5,3.5,0,0,1,.612,3.452,4.1,4.1,0,0,1-2.757,2.486Zm-63.574,0a75.312,75.312,0,0,0-9.537,2.332L122.9,536.1l6.254,1.526.006.036-.739,3.636Zm14.821-41.03-.564,3.86-.051.025c-1.115.565-3.744.313-5.26.078-.286-.853-1.324-3.654-2.974-4.83-.408-.291-.737-.532-1.023-.758l4.6-6.109c.213.049.428.1.643.151v6.206ZM179.8,485.338l.2.035,1.587.266-.793,3.4-4.465-1.255.941-2.9Zm65.443-8.664-3.715-3.178,5.413-5.56,3.382,3.271Zm.038.6,6.873,5.879-2.871,3.837-4.425,1-4.9-4.989ZM241.2,473.22l-3.835-3.281,6.072-5.386,3.194,3.089Zm-.3.307-5.1,5.247-3.906-3.975,5.153-4.575Zm.329.282,3.723,3.185-5.3,5.7-3.554-3.616Zm-1.569,9.515,4.807,4.891-24.1,21.555-2.962-2.5Zm.317,9.481,14.476,20.809-17.989,5.238-9.42-2.455,6.035-17.416Zm-19.6,17.53L232.379,499.6,226.6,516.283l-8.521-2.218-.037-.009-10.013-.173v-4.5l3.362-1.015.053-1.421,5.544.538Zm-9.426-2.261-3.373,1.019v4.781l-2.04-.035-11.972-3.092c.447-.542,1.417-1.7,2.61-3.083l8.75-.98,6.069.232Zm-39.023,13.955,6.244-1.1.534,8.4.014.031c.039.086,1.021,2.138,7.068,3.771a10.938,10.938,0,0,0,2.852.372,15.877,15.877,0,0,0,8.572-2.9l2.514,3.107-2.639,1.057a120.937,120.937,0,0,0-12.018,1.868c-1.341.309-2.518.643-3.557.937-2.758.781-4.423,1.253-5.52.329-.273-.23-.574-.45-.893-.684-1.594-1.168-3.4-2.491-2.593-5.7.415-1.645.028-5.493-.577-9.488Zm.054,12.077h-3.263a61.289,61.289,0,0,0-3.2-8.44l3.1-.7,3.576,5.491a5.63,5.63,0,0,1-.136.966,5.446,5.446,0,0,0-.079,2.678Zm-3.141-9.6-6.056,1.356-1.614-5.958V518.41l4.144-.064V523.2l6.159-1.09a54.823,54.823,0,0,1,.749,7.586Zm2.227-34.379-1.712,3.026-6.238-2.084.647-2.029Zm-7.178-1.479,1.154-3.607,7.684,2.16-1.441,2.547Zm19.669,2.593-1.937,6.012-2.727-.912,2.2-6.7Zm-2.342-2.024.817-3.5,3.135.529-1.477,4.583Zm.253,8.5-1.354,4.2-2.785-.816,1.409-4.3ZM177.7,510.884l1.055-3.275,3.559.918a24.874,24.874,0,0,1-1.021,3.267,1.67,1.67,0,0,0-.007,1.668c.359.5,1.111.759,2.513.862a1.866,1.866,0,0,1,1.609,1.049,2.559,2.559,0,0,0,.52.677L183,524.181l-3.883,4.542-.5-7.877h.005Zm-16.533,7.121v-8.748l-1.639-4.463v-2.1a15.133,15.133,0,0,1,1.751.359c1.674.45,5.012,1.323,8.912,2.335l-.967,4.662.008.038c.022.1,1.3,5.959,2.176,11.619l-5.641,1v-4.774Zm-24.193.093,2.447-7.006,5.552,1.065-.589,3.472Zm7.252-1.551-.4,2.362-2.076,3.18-.791-4.454Zm-4.139,1.379,1.066,6-.719,3.71-6.215-1.652,2.411-6.9Zm.27,10.111-.656,3.386-9.223-2.469,1.317-3.306,2.286.733v-.011Zm.879.234,5.39,1.432-1.2,5.407-5.266-1.258Zm.078-.4.763-3.938-.214-1.207,2.4-3.677.452-2.662,3.1-1.032-.231,10.069-.865,3.883Zm3.556-12.4.573-3.376,3.4-3.321,3.46.417,6.457-3.892,1.5,4.091v2.752c-.807.485-4.024,2.3-6.153,1.873a14.932,14.932,0,0,0-6.211.448ZM157.427,495.7l2.984.875-1.658,5.2a19.245,19.245,0,0,0-3.13-.037Zm-2.287,6.076a21.387,21.387,0,0,0-4.644.942l-.126-5.366,6.576-1.622Zm20.336,4.98,2.842.735-1,3.112-2.84-.792Zm-1.436,2.934-4.046-1.128.634-3.062,4.412,1.143Zm1.691-3.713,1.47-4.483,2.786.816-1.418,4.4C177.627,506.472,176.677,506.226,175.731,505.981Zm-.437-.113-4.454-1.155,1.5-4.639,4.427,1.3Zm-4.9-1.269c-2.315-.6-4.429-1.152-6.112-1.594l2.567-4.539,5.053,1.48Zm-6.556-1.71c-.938-.247-1.721-.455-2.3-.611a16.459,16.459,0,0,0-1.878-.387l1.613-5.059,5.142,1.507Zm5.843,7.161.224-1.082,7.345,2.047.881,9.5-6.275,1.11c-.836-5.4-2.036-10.937-2.175-11.577Zm16.135,5.151a2.323,2.323,0,0,0-1.984-1.282c-1.228-.091-1.9-.3-2.167-.676-.209-.291-.192-.719.051-1.31a25.142,25.142,0,0,0,1.031-3.294l5.7,1.47-2.347,5.5a2.09,2.09,0,0,1-.287-.411Zm-6.814-8.374,1.41-4.376,5.171,1.782,9.552,3.291c-1.132,1.315-2.026,2.391-2.4,2.843-1.394-.357-7.326-1.883-13.737-3.538Zm-2.111-5.846-4.428-1.3,1.454-4.484,4.389,1.467Zm-4.856-1.425-4.972-1.457,2.471-4.367,3.961,1.323Zm-2.93-5.966-2.484,4.384-5.225-1.531,1.564-4.9Zm-8.57,2.6-2.991-.876,1.517-5.077,3.048,1.018Zm-1.761-6.57-8.539-2.854,5.453-8.393,4.717,1.219-1.628,3.787,1.66.657Zm-.142.473-1.551,5.189-6.721,1.657-.227-9.687Zm-8.391,13.6a20.293,20.293,0,0,1,8.375-1.1v2.3l-6.432,3.877-6.4-.771-1.919-1.645c1.942-.932,6.322-2.648,6.37-2.668Zm-4.666,4.681,2.709.326-3.14,3.072-5.592-1.073,1.309-3.747a6.569,6.569,0,0,0,2.583-.4Zm-8.257,7.358-11.708-3.53.931-4.287,10.469-1.35a24.226,24.226,0,0,0,3.375.379Zm-.136.388-.753,2.156-4.287,1.429-8.435,1.233,1.814-8.334Zm-8.96,4.98-4.007,10.342-3.541-1.021,2.811-8.629Zm-3.721,10.854,3.94,1.136.638,4.1-6.038-1.474Zm.149-.383,4.085-10.542,3.6-.527.044-.006,3.709-1.236-2.3,6.6-2.269-.727-3.008,7.552Zm5.672-2.233,9.3,2.489-.351,1.815-9.736-2.327Zm9.752,4.916,5.255,1.255-1.5,6.713-6.121,4.236Zm5.7,1.361,2.8.67-.759,7.826,3.657,4.576-7.062,1.715-.14-8.046ZM148.291,544l.737-7.606,4.031.963,2.1,1.312,2.63,5.933-5.881,3.922Zm4.675-7.085-7.1-1.7,1.2-5.4,6.7,1.779Zm-5.806-7.491.878-3.938v-.017l.235-10.262a13.906,13.906,0,0,1,5.631-.4,4.489,4.489,0,0,0,.881.083,12.708,12.708,0,0,0,5.473-1.778v4.912l-4.341.068-1.349,8.168-.744,4.938Zm13.1-11V520l1.641,6.059-3.027.678-.639-8.281Zm25.659,14.316c-5.063-1.367-6.445-3.027-6.719-3.437l4.193-4.9.024-.028,2.889-8.029a3.133,3.133,0,0,0,1.331.479l2.675.332a11.457,11.457,0,0,0,.4,3.78,12.179,12.179,0,0,0,2.174,4.326l4.054,5.014c-1,.717-5.822,3.873-11.025,2.468Zm4.421-15.988-2.644-.328a2.605,2.605,0,0,1-1.237-.489l2.437-5.71,3.512.9a12.387,12.387,0,0,0-2.068,5.623Zm2.611-5.484.153.04.114-.139,9.927,2.564-.817,4.506-11.44-1.419a11.907,11.907,0,0,1,2.062-5.552Zm2.482-4.076-14.893-5.128,1.352-4.2,16.848,5.632c-1.144,1.226-2.3,2.538-3.307,3.7Zm-13.385-9.8,1.932-6,16.668,3.218h1.827l2.338-2.683,3.667,2.519c-4.178,3.725-6.865,6.135-7.388,6.634-.621.592-1.294,1.278-1.98,2Zm20.2-3.179H200.72L184.106,491l3.2-9.943,2.555.6,14.588,10.023Zm-16.958-8.365-3.169-.533.032-.137-.446-.083-.034.144-1.547-.26,1.763-5.2,4.976,1.177Zm-4.612,3.588-2.216,6.76-4.391-1.467,2.125-6.553Zm-7.034,5.15-3.865-1.292,3.379-5.972,2.6.733Zm-.719-7.755-7.767-2.183,1.91-5.988,9.161,2.331Zm-10.669,3.949-3.056-1.021,1.779-5.955-1.62-.641,1.651-3.84-5.084-1.314,2.461-3.788,8.508,2.012Zm-7.231-13-17.775-4.591.407-3.868,19.818,4.688Zm-.235.362-5.414,8.335-5.636-1.88,3.653-8.365Zm-5.577,8.8.233,9.945c-1.484-.485-5.762-1.85-9.838-2.845l3.928-9Zm.243,10.381.134,5.729c-.973.383-4.194,1.663-5.959,2.487l.569-3.906-4.66-1.382v-5.8c4.206,1.029,8.633,2.455,9.924,2.879Zm-15.96,2.694a12.873,12.873,0,0,1-2.179-2.672,29.2,29.2,0,0,0-2.456-2.959,7.976,7.976,0,0,1,4.96-1.009,34.445,34.445,0,0,1,4.148.705Zm.792,1.671c1.264.9,2.171,3.055,2.549,4.086l-15.367,1.982L124,502.34l6.841,1.863,2.48-3.235c.278.218.594.451.968.718Zm-13.343,6.136-7.045.908-1.225-5.4,1.244-3.732,9.643,2.626Zm5.125.159-.913,4.2-10.617,1.352-.5-4Zm-1,4.618-1.83,8.414-7.636,1.117-1.013-8.191ZM123,521.869l-2.746,8.431-3.771-1.087-.777-6.277Zm-2.441,8.945,3.52,1.015-1.465,3.782-3.35-.817Zm1.9,5.181-3.664,9.46c-1.195.383-2.256.753-3.147,1.079a12.379,12.379,0,0,1-6.958.422l-2.315-.534,1.592-6.182,8.913,1.852,2.251-6.909Zm7.148,1.744,8.385,2.046.12-.391-8.549-2.086-.678-4.351.5-1.258,9.811,2.344-1.567,8.092a52.01,52.01,0,0,0-8.3.739l-.443-1.586Zm7.944,4.8-.778,4.021L135,545.122l-4.706,1.191-.853-3.052a51.434,51.434,0,0,1,8.113-.723Zm-2.676,3.035,1.8,1.46-1.065,5.5-23.186,5.63-1.805-4.759,9-3.971Zm2.481,2.733,1.382,3.467-2.158.524Zm.157-.815.086-.444,6.222-4.3.136,7.765-4.776,1.16Zm6.546,3.5,2.846,7.17-4.381,1.115.125.39,4.408-1.122,1.281,3.229-4.691,1.076-4.284-10.723Zm3.436,7.442,10.925-2.781.2,3.852-3.617.745-6.223,1.427Zm-.152-.383-2.844-7.166,7.447-1.808.05-.012,5.871-3.916.531,10.088Zm8.179-19.646-2.129-1.332,1.621-10.761,1.292-7.825,1.467-.023.678,8.785,3.551-.8,3.354,12.381.031.689-7.231,4.823Zm7.362-12.148,2.179-.488c.58,1.242,4.336,9.495,4.176,14.481l-2.946-.851-.029-.636v-.04Zm30.435-1.285a11.962,11.962,0,0,1-2.465-7.747l11.848,1.469.879-4.849,1.83.473.035.009,12.508.216,8.478,2.207-2.522,7.276-23.685,9.482Zm30.912-.629.056-.023,2.584-7.457,23.487,6.113,2.566.55-46.455,16.6ZM216.45,537l2.37,4.786-15.137,6.39-.475-1.833,2.486-5.5Zm.423-.151,15.9-5.685,2.627,3.621-16.173,6.827Zm16.335-5.839,20.482-7.321L259,524.827l-23.178,9.784Zm20.34-7.852-3.049-.653-13.259-3.453,17.3-5.038Zm-13.242-30.65,4.588-4.1,4.669-1.061,3.015-4.029,17.111-1.657-5.263,29.05-9.527,2.774Zm12.1-9.7-6.838-5.85,5.062-5.448,5.935,5.739ZM250.923,471.2l2.8-3.019,3.452,8.251-.355.475Zm-.312-.3-3.371-3.264,4.38-4.5,1.927,4.607Zm.913-8.288-.09.089-4.509,4.635-3.171-3.067,6.9-6.118,3.084,2.251Zm-19.962,12.477,7.792,7.928-22.362,24.061-5.533-.536.389-10.427,16.97-11.522-3.932-3.58,6.677-5.928Zm-3.432,9.463L211.4,495.91l-.4,10.6-6.08-.236H204.9l-8.337.934c1.63-1.872,3.59-4.038,5.192-5.566,1.018-.97,10.279-9.219,22.808-20.347Zm-19,9.331-6.609-4.541,2.027-2.076,4.292-16.114,6.307,1.433,8.781,8.136c-5.8,5.148-10.892,9.679-14.8,13.163Zm-5-6.808-1.971,2.019-11.812-8.116-.073-.05-2.714-.642,2.339-7.258,5.1,1.031.061.012,5.28-1.512.872-3.142,7.19,1.633Zm-4.171-14.832-4.919,1.409-5.013-1.013,1.73-5.368,9.014,2.047Zm-10.378.306-8.508-1.72-.025-.005H168.062l.268-10.806,9.635,1.95,4.781.563,3.71,2.791,4.865,1.819ZM181,471.226l8.458,1.71-2.334,7.244-19.181-4.536.11-4.417Zm.455,8.453L179.68,484.9l-2.735-.488-1.054,3.25-2.523-.709,3.519-6.22-9.692-2.463.583-1.827Zm-14.412-4.25-8.176-1.934,8.549-13.159Zm-9.088-2.15-20.2-4.78,2-19.125,1.075-2.078a67.619,67.619,0,0,0,14.167.6c8.054-.7,11.631,2.015,12.309,2.61l-4.339,5.19,3.949,3.787ZM138.9,449.1l-.033.063-1.571,14.958-5.151-9.78,2.545-8.075c.625.13,2.566.519,5.206.9Zm-7.236,5.273,3.467,6.587-6.985.35-.5-6.4,3.027-10.033,3.589,1.263Zm-4.471.466-.01.033.508,6.46-5.333.267,1.151-12.3,1.674-6.349,5.06,1.78Zm.531,6.9.434,5.5.454-.029-.433-5.5,7.161-.358,1.873,3.558-.352,3.345a36.732,36.732,0,0,0-9.082-.885c-1.271.019-2.71.1-4.293.262l-1.187-5.4.022-.231Zm9.492,11.857,9.742,2.516-3.64,8.336-7-2.338Zm-6.671,24.17a12.867,12.867,0,0,0,2.439,2.925l-2.327,3.035-6.478-1.765,2.588-5.54a5.635,5.635,0,0,1,1.378-1.537A28.615,28.615,0,0,1,130.54,497.767Zm-6.8,4.077-10.128-2.758-1.407,4.221,1.244,5.48-7.263.937v-11.83l1.8-4.548c2.062.536,15.471,4.378,17.418,4.937Zm-10.15,7.744.5,4-7.9,1.009v-4.055Zm.545,4.4,1.014,8.2-8.962,1.311V515.01ZM115.249,523l.806,6.516,4.064,1.172-3.557,10.92-8.938-1.857-1.7,6.6-4.56-.4-1.124-4.586,5.928-16.493.014-.036v-.5Zm-9.594-25.222-.016.04v11.98l-6.117.789-.743-4.36.589-10.449,6.383,1.759Zm-5.435,20.15-26.706,3.532-.986-6.571,26.589-3.428Zm.137.8.063.372,1.526,5.022h-2.1L85.029,536.93l-18.25,1.044v-7.531l6.6-8.152ZM85.165,537.41l.1,0,14.808-12.8h2.588l-1.7-5.6-1.3-7.625,5.98-.771v14.143l-5.96,16.581,1.125,4.606c-2.718.116-22.582.875-34.284-1.07l.25-6.409ZM105.1,561.231l-3.631-14.866,4.6.4,2.511.579a12.9,12.9,0,0,0,7.245-.439,77.431,77.431,0,0,1,13.169-3.569l.863,3.087-10.37,2.624-9.416,4.15,1.944,5.128-6.855,2.911-.057-.01Zm8.149,2.084a48.685,48.685,0,0,0-7.2-1.913l6.142-2.608,1.8,4.755c-.27-.076-.518-.154-.742-.234Zm1.276.375-1.918-5.06,22.908-5.562L133.05,565.8c-3.825-.229-13.75-.917-18.526-2.106Zm20.075,2.194-.635-.034,2.52-13.017,2.445-.594,5.369,13.443c-5.317.364-9.636.2-9.7.2Zm10.169-.236-.962-2.408,4.69-1.076,1.18,2.974c-1.659.23-3.323.394-4.908.51Zm8.555-1.134c-1.043.218-2.113.4-3.189.559l-1.2-3.011,6.179-1.418,3.531-.727.178,3.388c-1.461.335-3.241.738-5.5,1.21Zm4.989-19.659,7.107-4.74.6,13.183-7.166,1.824Zm.562,10.683,7.166-1.824.192,4.225-7.151,1.472Zm.52,7.636-.117.026-.177-3.378,7.148-1.471.171,3.769C164.372,562.031,162.807,562.391,159.394,563.174Zm7.24-16.372,7.877.509v5.239l-7.589.6Zm.5,10.992-.193-4.236,7.584-.6.271,4.4Zm7.622-10.873-8.14-.527-.294-6.478,12.17,3.515H180.4l-.418,3.819Zm.741,14.416-.222-3.6h.025l-.029-.4h-.021l-.283-4.606v-5.39l5.018.316,1.435,11.927Zm19.538-5.786-13.174,3.9-1.421-11.765,16.151,1.016Zm.473-.035,1.586-6.955,1.9-7.06a4.589,4.589,0,0,0,3.01-2.768,3.936,3.936,0,0,0-.689-3.885l-.813-1.005,22.559-9.031-17.733,15.762-2.566,5.676-.027.059,2.5,9.64Zm10.154.284-1.87-7.22,15.216-6.424,2.239,4.52A122.794,122.794,0,0,0,205.662,555.8ZM229.9,542.517c-3.051,1.388-5.8,2.714-8.257,3.957l-2.225-4.492,16.238-6.855,2.734,3.768c-2.944,1.189-5.819,2.406-8.491,3.621Zm8.91-3.79-2.739-3.774,23.634-9.978,11.1,2.377c-3.573,1.136-18.456,5.936-31.991,11.375Zm43.125-31.068-2.278,21.09-7.711-1.652,3.593-19.6Zm-3.249-19.848L271.5,527,254,523.253l1.014-9.376,9.688-2.821.132-.038,5.36-29.591ZM272.2,467.786l-6.094-5.812,9.336-12.09Zm.079-28.807,3.3,10.012-9.791,12.683-9.206-8.781,15.7-13.912Zm-16.02,14.2,15.849,15.12-2.346,12.95-16.855,1.63,4.784-6.394-5.731-13.7,2.434-2.432-3.415-2.493Zm-11.277,1.371.091-.177,6.412,1.894-4.284,3.8-4.45-1.461Zm-17.344-5.323,17,5.021-.068.132-2.248,4.086L225.6,452.974Zm-13.213.958,10.78,3.1,16.773,5.5-7.726,6.977-9.638-3.276-3.6,7.682-3.483-3.889,3.148-7.066-.827-1.35-7.016-1.7Zm-1.7,6.372,6.814,1.656.631,1.031-3.166,7.108,10.248,11.414-3.006,2.669-8.821-8.172-.045-.042-6.439-1.463Zm-.44-.107L208.5,470.653l-7.186-1.632.943-3.4,2.49-11.008ZM196.475,452.6l7.832,1.9-2.487,11.03-.94,3.387-9-2.044Zm-20.329-5.868,19.894,5.752-4.59,14.259-4.751-1.772-3.759-2.833-4.883-.574L168.34,459.6l.018-.724Zm-5.9.926c.46-.5,2.027-1.844,5.005-1.168l-7.745,12.07-.358.552-3.6-3.448Zm-25.357-8.226,24.653,8.387-1.96,2.352c-.846-.741-4.483-3.392-12.63-2.683a66.943,66.943,0,0,1-13.925-.576Zm-.849-.291-3.951,7.642c-2.662-.382-4.633-.775-5.28-.91l2.811-8.915Zm-5-9.626-1.793,7.123-2.872,9.111-3.594-1.264,4.847-16.066Zm-3.841-1.236-4.842,16.057-5.074-1.785,4.244-16.1Zm-6.1-1.963-6.039,22.9v.014l-1.169,12.424-18.668,4.478-3.729,4.816c-2.9-2.115-5.2-3.776-6.169-4.469a44.235,44.235,0,0,0-11.147-5.375l-.028-.6c12.217-4.05,21.832-13.95,27.755-21.561C113.709,434.073,117.048,428.85,129.1,426.319Zm-19.567,12.4c-1.342,1.724-2.875,3.566-4.585,5.432l-6.53-6.675.019-.013-.044-.037S113.313,433.869,109.532,438.717Zm-4.878,5.752c-5.729,6.184-13.395,12.551-22.524,15.616l-.517-10.962,16.445-11.4ZM84.923,426.574,97.74,437.425l-16.15,11.2-.464-9.827Zm-10.766.192,10.345-.359-1.635,5.267H74.04Zm-9.264.321,8.807-.313-.115,4.9H65.216Zm.347,4.987h8.33l-.189,7.939-7.46,1.747Zm.7,10.1,7.894-1.85.2-8.253H82.74l-2.064,6.645-.009.031,1.047,22.2c-2.666-.91-5.675-1.789-9.073-2.654a30.383,30.383,0,0,1-7.713-3.237A126.772,126.772,0,0,0,65.94,442.174Zm-4.963,31.12c.52-5.711,1.244-9.469,2.153-11.169a21.794,21.794,0,0,0,1.667-6.182,31.026,31.026,0,0,0,7.6,3.131c3.532.9,6.636,1.812,9.365,2.757l.653,13.943H75.693L60.94,473.688C60.953,473.556,60.965,473.425,60.977,473.294Zm18.944,9.667-.07-.016-19.485.919c.036-1.3.171-5.415.541-9.77l14.733,2.088h6.795l.3,6.328a8.269,8.269,0,0,1-2.811.449Zm2.3-20.968a42.578,42.578,0,0,1,10.536,5.123c.948.675,3.151,2.269,5.949,4.308l-12.035,3.833-3.8.492Zm.963,20.4-.295-6.233,3.87-.5,12.358-3.932c1.044.762,2.163,1.579,3.325,2.43-10.394,5.216-16.168,7.362-19.259,8.232Zm16.663-11.185,3.655-4.72,18.349-4.406-.014.155v.028l1.192,5.424a59.252,59.252,0,0,0-19.735,6.037Zm4.2,3.073a55.786,55.786,0,0,1,23.693-6.091,35.634,35.634,0,0,1,9.032.9l-.532,5.024-7.725.516-3.3,3.531.939,3.813h-6.5l-2.64,1.943c-3.668-2.781-8.551-6.393-12.971-9.636Zm12.681,10.48c2.2,1.669,3.918,3.013,4.776,3.752q.56.483,1.115.98l-4.159,2.44-4.5-5.138Zm-7.547,5.553,4.08-3,5,5.711,5.012-2.941c1.667,1.52,3.267,3.09,4.578,4.49a6.071,6.071,0,0,0-1.5,1.685l-.77,1.647c-1.888-.542-15.2-4.358-17.443-4.944Zm-36.079,5.4a19.872,19.872,0,0,0,3.124-4.306l15.979-2.018,16.306,1.158-2.578,6.523-7.076-1.95-.617,10.87H88.87L78.655,500.2l-7.342.744c.1-1.309.469-3.887,1.79-5.229Zm-1.821,5.72,7.242-.734,10.187,5.774h9.56l.711,4.174-26.55,3.426-1.159-12.343c0-.037,0-.142.01-.3Zm-15.006,1.521,14.091-1.428v.22l1.167,12.444-20.943,2.7-.011-8.24A6,6,0,0,1,56.275,502.955Zm4.985,35.334L48.4,534.474l2.136-16.756L71.628,515l1.021,6.81-6.781,8.372v7.844Z" transform="translate(-386.04 14258.855)"/></g><rect class="d" width="260.323" height="114.022" transform="translate(-350.724 14684.372)"/></g></svg>