<svg xmlns="http://www.w3.org/2000/svg" width="33.026" height="33.026" viewBox="0 0 33.026 33.026">
  <g id="Group_2890" data-name="Group 2890" opacity="0.996">
    <path id="Path_3556" data-name="Path 3556" d="M41.31,29.261,30.45,37.651a.783.783,0,0,0,.956,1.239L42.267,30.5a.783.783,0,0,0-.956-1.239ZM34.055,32.3a2.739,2.739,0,1,0-1.936-.8A2.722,2.722,0,0,0,34.055,32.3Zm-.83-3.569a1.174,1.174,0,0,1,1.66,1.66,1.2,1.2,0,0,1-1.66,0A1.175,1.175,0,0,1,33.225,28.729Zm5.437,7.125a2.739,2.739,0,1,0,1.936.8A2.722,2.722,0,0,0,38.662,35.853Zm.83,3.569a1.2,1.2,0,0,1-1.66,0,1.174,1.174,0,1,1,1.66,0Z" transform="translate(-19.099 -17.801)" fill="#fff"/>
    <path id="Path_3557" data-name="Path 3557" d="M20.513,4A16.513,16.513,0,1,0,37.026,20.513,16.513,16.513,0,0,0,20.513,4Zm0,31.525A15.012,15.012,0,1,1,35.525,20.513,15.012,15.012,0,0,1,20.513,35.525Z" transform="translate(-4 -4)" fill="#fff"/>
  </g>
</svg>
