<svg xmlns="http://www.w3.org/2000/svg" width="16.498" height="18.771" viewBox="0 0 16.498 18.771">
  <g id="Group_3274" data-name="Group 3274" transform="translate(-5.137 -5.56)">
    <path id="sharing" d="M44.2,12.172a3.288,3.288,0,0,0-2.284.92l-3.529-2.186a3.846,3.846,0,0,0,0-3.041l3.529-2.186a3.293,3.293,0,1,0-.658-.886L37.81,6.928a3.85,3.85,0,1,0,0,4.915l3.446,2.135A3.3,3.3,0,1,0,44.2,12.172ZM44.2,1.1A2.2,2.2,0,1,1,42,3.3,2.2,2.2,0,0,1,44.2,1.1ZM34.85,12.135a2.75,2.75,0,1,1,2.75-2.75A2.753,2.753,0,0,1,34.85,12.135ZM44.2,17.671a2.2,2.2,0,1,1,2.2-2.2A2.2,2.2,0,0,1,44.2,17.671Z" transform="translate(-25.863 5.56)" fill="#ff6300"/>
  </g>
</svg>
