<svg xmlns="http://www.w3.org/2000/svg" width="21.181" height="22.792" viewBox="0 0 21.181 22.792"><g transform="translate(-17.2 0)"><path d="M23.237,15.007H35.8a2.591,2.591,0,0,0,2.586-2.586V7.081a.059.059,0,0,0,0-.028c0-.009,0-.023,0-.033s0-.019,0-.028a.3.3,0,0,1-.009-.033c0-.009,0-.019-.009-.028s0-.019-.009-.028a.228.228,0,0,1-.014-.033.1.1,0,0,0-.014-.023L38.3,6.819c0-.009-.009-.014-.014-.023s-.014-.019-.019-.028a.082.082,0,0,0-.019-.023c0-.009-.014-.014-.019-.023s-.014-.014-.019-.023-.014-.014-.019-.019l-.023-.023c-.009,0-.014-.014-.023-.019s-.019-.014-.028-.019L38.09,6.6a.1.1,0,0,1-.028-.019l-.028-.014-.028-.014-.028-.014c-.009,0-.019,0-.028-.009a.087.087,0,0,0-.033-.009.2.2,0,0,1-.023,0,.1.1,0,0,0-.037,0s-.009,0-.019,0L21.92,4.313V2.093a.288.288,0,0,0,0-.066.035.035,0,0,0,0-.019c0-.014,0-.028,0-.042s0-.023-.009-.037,0-.014,0-.023l-.014-.042s0-.014,0-.019a.14.14,0,0,0-.019-.037s0-.014-.009-.019a.1.1,0,0,0-.019-.028c0-.009-.009-.014-.014-.023s-.009-.014-.014-.023-.014-.019-.019-.028l-.014-.014-.028-.028-.014-.014a.2.2,0,0,0-.033-.028s-.014-.009-.019-.014-.019-.014-.028-.023a.432.432,0,0,0-.037-.023s-.009,0-.014-.009L21.532,1.5,18.079.05a.633.633,0,1,0-.492,1.166l3.063,1.293V16.365A2.589,2.589,0,0,0,22.9,18.928a2.552,2.552,0,1,0,4.74,1.312,2.5,2.5,0,0,0-.351-1.288H32.98a2.517,2.517,0,0,0-.351,1.288,2.553,2.553,0,1,0,2.553-2.553H23.237a1.322,1.322,0,0,1-1.321-1.321V14.651A2.615,2.615,0,0,0,23.237,15.007Zm3.148,5.228A1.288,1.288,0,1,1,25.1,18.946,1.29,1.29,0,0,1,26.385,20.235Zm10.09,0a1.288,1.288,0,1,1-1.288-1.288A1.29,1.29,0,0,1,36.474,20.235ZM35.8,13.742H23.237a1.322,1.322,0,0,1-1.321-1.321V5.587l15.2,2.094v4.736A1.323,1.323,0,0,1,35.8,13.742Z"/></g></svg>