<svg xmlns="http://www.w3.org/2000/svg" width="17.567" height="16.956" viewBox="0 0 17.567 16.956"><defs><style>.a{fill:#00a4ff;}</style></defs><g transform="translate(0 -10.638)"><g transform="translate(0 10.638)"><g transform="translate(0 0)"><path class="a" d="M16.962,26.383H8.485a.605.605,0,1,0,0,1.211h8.477a.605.605,0,1,0,0-1.211ZM9.506,16.512a.612.612,0,0,0,0-.863L5.3,10.811a.6.6,0,0,0-.46-.173.6.6,0,0,0-.46.173l-4.2,4.837a.609.609,0,0,0,.86.863l3.209-3.692V27.593H5.458V12.842l3.189,3.67A.606.606,0,0,0,9.506,16.512Zm.19-3.45h7.266a.62.62,0,0,0,.606-.622.606.606,0,0,0-.606-.606H9.7a.606.606,0,0,0-.606.606A.62.62,0,0,0,9.7,13.062Zm7.266,9.683H8.485a.606.606,0,0,0,0,1.212h8.477a.606.606,0,0,0,0-1.212Zm0-3.637H8.485a.606.606,0,0,0,0,1.212h8.477a.606.606,0,0,0,0-1.212Zm0-3.637-4.844.013a.6.6,0,0,0-.606.593.616.616,0,0,0,.606.618l4.844-.012a.606.606,0,0,0,0-1.212Z" transform="translate(0 -10.638)"/></g></g></g></svg>