<svg xmlns="http://www.w3.org/2000/svg" width="54.015" height="40.089" viewBox="0 0 54.015 40.089"><defs><style>.a{fill:#ea5607;}</style></defs><g transform="translate(0 -66)"><g transform="translate(0 66)"><path class="a" d="M50.85,70.22H48.529V69.165A3.169,3.169,0,0,0,45.364,66H3.165A3.169,3.169,0,0,0,0,69.165V98.7a3.169,3.169,0,0,0,3.165,3.165H4.22v1.055a3.169,3.169,0,0,0,3.165,3.165H50.85a3.169,3.169,0,0,0,3.165-3.165V73.385A3.169,3.169,0,0,0,50.85,70.22ZM2.11,69.165A1.056,1.056,0,0,1,3.165,68.11h42.2a1.056,1.056,0,0,1,1.055,1.055V72.33H2.11Zm0,5.275H46.419v4.22H2.11ZM3.165,99.759A1.056,1.056,0,0,1,2.11,98.7V80.77H46.419V98.7a1.056,1.056,0,0,1-1.055,1.055Zm48.74,3.165a1.056,1.056,0,0,1-1.055,1.055H7.385a1.056,1.056,0,0,1-1.055-1.055v-1.055H45.364A3.169,3.169,0,0,0,48.529,98.7V72.33H50.85A1.056,1.056,0,0,1,51.9,73.385Z" transform="translate(0 -66)"/></g><g transform="translate(6.33 84.99)"><g transform="translate(0 0)"><path class="a" d="M65.275,246h-4.22a1.055,1.055,0,1,0,0,2.11h4.22a1.055,1.055,0,1,0,0-2.11Z" transform="translate(-60 -246)"/></g></g><g transform="translate(14.77 84.99)"><g transform="translate(0 0)"><path class="a" d="M145.275,246h-4.22a1.055,1.055,0,0,0,0,2.11h4.22a1.055,1.055,0,0,0,0-2.11Z" transform="translate(-140 -246)"/></g></g><g transform="translate(6.33 91.319)"><path class="a" d="M69.495,306h-8.44a1.055,1.055,0,1,0,0,2.11h8.44a1.055,1.055,0,1,0,0-2.11Z" transform="translate(-60 -306)"/></g><g transform="translate(25.319 84.99)"><g transform="translate(0 0)"><path class="a" d="M251.6,246a5.278,5.278,0,0,0-3.165,1.057,5.275,5.275,0,1,0,0,8.436A5.274,5.274,0,1,0,251.6,246Zm-3.958,7.368a3.165,3.165,0,1,1,0-4.186h0a3.16,3.16,0,0,1,0,4.185Zm3.958,1.072a3.166,3.166,0,0,1-1.759-.535,5.261,5.261,0,0,0,0-5.26,3.165,3.165,0,1,1,1.759,5.795Z" transform="translate(-240 -246)"/></g></g></g></svg>