<svg xmlns="http://www.w3.org/2000/svg" width="49.144" height="56.65" viewBox="0 0 49.144 56.65"><defs><style>.a{fill:#ea5607;}</style></defs><g transform="translate(-21.961)"><g transform="translate(21.961 0)"><g transform="translate(0 0)"><path class="a" d="M69.265,9.757,51.97.392a3.648,3.648,0,0,0-4.785,1.436l-10.117,18.8h-12.3a2.772,2.772,0,0,0-2.8,2.8V53.847a2.772,2.772,0,0,0,2.8,2.8H64.069a2.772,2.772,0,0,0,2.8-2.8V46.738h1.162a1.08,1.08,0,0,0,1.094-1.094V37.51a1.08,1.08,0,0,0-1.094-1.094H66.872v-8a2.852,2.852,0,0,0-2.187-2.734L70.7,14.542A3.583,3.583,0,0,0,69.265,9.757Zm-12.3-4.17L46.16,25.616H43.084L54.636,4.356ZM49.167,2.853a1.345,1.345,0,0,1,1.777-.547l1.709.957L40.623,25.616h-3.76ZM24.08,23.36a.66.66,0,0,1,.615-.547H35.838l-1.5,2.734H24.7a1.893,1.893,0,0,0-.615.068V23.36ZM64.616,53.847a.613.613,0,0,1-.615.615H24.7a.613.613,0,0,1-.615-.615V28.418A.613.613,0,0,1,24.7,27.8H63.933a.613.613,0,0,1,.615.615v8h-4.17A3.282,3.282,0,0,0,57.1,39.7v3.76a3.282,3.282,0,0,0,3.281,3.281h4.238v7.109ZM66.8,38.6h.068v5.947H60.378a1.08,1.08,0,0,1-1.094-1.094V39.7A1.08,1.08,0,0,1,60.378,38.6Zm1.914-25.156L62.155,25.616H48.621L58.874,6.681l9.3,5.058A1.2,1.2,0,0,1,68.718,13.448Z" transform="translate(-21.961 0)"/></g></g><g transform="translate(59.002 11.81)"><path class="a" d="M244.256,69.721l-.547-.273a2.992,2.992,0,0,0-3.965,1.162l-.684,1.3a2.879,2.879,0,0,0-.205,2.256,2.753,2.753,0,0,0,1.436,1.709l.547.273a3.112,3.112,0,0,0,1.367.342,3.075,3.075,0,0,0,2.6-1.5l.684-1.3A3.063,3.063,0,0,0,244.256,69.721ZM243.5,72.66l-.684,1.3a.772.772,0,0,1-1.025.273l-.547-.342a1,1,0,0,1-.342-.41.516.516,0,0,1,.068-.547l.684-1.3a.907.907,0,0,1,.684-.41.616.616,0,0,1,.342.068l.547.273A1.063,1.063,0,0,1,243.5,72.66Z" transform="translate(-238.71 -69.108)"/></g></g></svg>